# File created by Blade
# Date/Time:  Thu Sep 25 15:41:58 2014
# Frame Rate: 120.000 fps
#------------------------------------------------------
:FULLY-SPECIFIED
:DEGREES
785
root 20.497860 31.613287 -1.223072 139.808234 -77.749453 -116.798284
Spine 9.827670 12.040380 -0.287614
Head -35.858876 24.411426 -0.873971
LeftShoulder 0.519783 16.635598 16.480571
LeftArm 48.058887 32.284487 -54.280647
LeftForeArm 4.036069 -0.000000 31.668204
LeftHand -27.704623 0.000000 14.143315
LeftHandThumb1 -26.253704 0.000000 33.147579
RightShoulder -5.125454 16.301955 -20.272630
RightArm 5.850056 -42.109334 88.203638
RightForeArm -19.435564 -0.000000 33.896209
RightHand -3.061278 -0.000000 2.527746
RightHandThumb1 -24.326973 -0.000000 -32.862282
LeftUpLeg -49.325202 10.247561 -4.566862
LeftLeg 8.360722 -0.000000 -0.000000
LeftFoot 8.358333 9.074855 -39.373665
LeftToeBase -1.698041 -0.000000 0.000000
RightUpLeg -21.928028 2.822965 18.164914
RightLeg 24.658561 -0.000000 -0.000000
RightFoot -22.770700 -9.940369 -6.537748
RightToeBase -3.588036 -0.000000 0.000000
786
root 20.636647 31.639391 -1.203555 137.921315 -78.004770 -115.467563
Spine 9.860920 12.119616 0.064744
Head -36.078881 26.538204 -1.938061
LeftShoulder 0.296119 16.704570 16.199467
LeftArm 48.131932 32.911046 -53.917751
LeftForeArm 4.076664 -0.000000 31.152603
LeftHand -27.684410 -0.000000 13.757601
LeftHandThumb1 -26.253704 0.000000 33.147579
RightShoulder -5.306833 16.249979 -20.302753
RightArm 5.225186 -41.885868 88.652684
RightForeArm -19.242439 -0.000000 33.614624
RightHand -2.976662 -0.000000 2.872678
RightHandThumb1 -24.326973 -0.000000 -32.862282
LeftUpLeg -49.254850 10.094355 -4.353007
LeftLeg 9.597201 -0.000000 -0.000000
LeftFoot 8.068433 8.412409 -39.348527
LeftToeBase -2.785523 -0.000000 0.000000
RightUpLeg -21.638176 2.510530 18.190229
RightLeg 24.526643 -0.000000 -0.000000
RightFoot -22.597781 -10.038380 -6.535723
RightToeBase -3.304169 -0.000000 0.000000
787
root 20.773502 31.669763 -1.182859 135.921009 -78.257151 -114.000060
Spine 9.900560 12.192398 0.410165
Head -36.395126 28.752959 -3.110455
LeftShoulder 0.017233 16.686451 15.961468
LeftArm 48.219130 33.593166 -53.607397
LeftForeArm 4.088735 0.000000 30.562979
LeftHand -27.692348 0.000000 13.290254
LeftHandThumb1 -26.253704 0.000000 33.147579
RightShoulder -5.485875 16.085421 -20.283947
RightArm 4.826769 -41.975539 88.797428
RightForeArm -19.025511 -0.000000 33.485566
RightHand -2.950261 -0.000000 2.938147
RightHandThumb1 -24.326973 -0.000000 -32.862282
LeftUpLeg -49.237471 9.938303 -4.163401
LeftLeg 10.979170 -0.000000 -0.000000
LeftFoot 7.469565 7.705464 -38.781413
LeftToeBase -3.370185 -0.000000 0.000000
RightUpLeg -21.367101 2.148045 18.219199
RightLeg 24.329580 -0.000000 -0.000000
RightFoot -22.301630 -10.288343 -6.572709
RightToeBase -3.356398 -0.000000 0.000000
788
root 20.904220 31.701681 -1.161683 133.962513 -78.500388 -112.540850
Spine 9.893936 12.393288 0.743187
Head -36.703398 30.845618 -4.264955
LeftShoulder -0.257119 16.835528 15.692376
LeftArm 48.570042 34.225848 -53.025737
LeftForeArm 4.040206 -0.000000 30.053540
LeftHand -27.608104 0.000000 13.002281
LeftHandThumb1 -26.253704 0.000000 33.147579
RightShoulder -5.671192 15.882071 -20.280508
RightArm 4.412505 -41.979505 88.971606
RightForeArm -18.789988 -0.000000 33.328488
RightHand -2.858456 -0.000000 3.348938
RightHandThumb1 -24.326973 -0.000000 -32.862282
LeftUpLeg -49.239888 9.701361 -3.879643
LeftLeg 12.449944 -0.000000 -0.000000
LeftFoot 6.518446 7.024215 -37.590326
LeftToeBase -4.009893 -0.000000 0.000000
RightUpLeg -21.104088 1.907362 18.207474
RightLeg 24.117883 -0.000000 -0.000000
RightFoot -22.025090 -10.526546 -6.504686
RightToeBase -3.274662 -0.000000 0.000000
789
root 21.030108 31.735276 -1.132687 132.209675 -78.805463 -111.294206
Spine 9.929680 12.583913 0.959862
Head -37.204361 32.939326 -5.523883
LeftShoulder -0.519778 17.069826 15.515088
LeftArm 48.889256 34.736074 -52.522446
LeftForeArm 4.088212 0.000000 29.782883
LeftHand -27.598910 0.000000 12.667205
LeftHandThumb1 -26.253704 0.000000 33.147579
RightShoulder -5.841514 15.777527 -20.238671
RightArm 3.936635 -42.155470 89.142031
RightForeArm -18.724973 -0.000000 33.204319
RightHand -3.013125 -0.000000 3.156506
RightHandThumb1 -24.326973 -0.000000 -32.862282
LeftUpLeg -49.190619 9.365947 -3.592939
LeftLeg 13.926280 -0.000000 -0.000000
LeftFoot 5.330076 6.539799 -36.373635
LeftToeBase -4.470591 -0.000000 0.000000
RightUpLeg -20.885259 1.589583 18.091844
RightLeg 24.046537 -0.000000 -0.000000
RightFoot -21.872123 -10.558021 -6.338037
RightToeBase -2.931533 -0.000000 0.000000
790
root 21.153587 31.768835 -1.099342 130.234288 -79.130615 -109.842808
Spine 9.986317 12.806234 1.225159
Head -37.498012 34.937657 -6.680351
LeftShoulder -0.685629 17.107524 15.338152
LeftArm 48.937442 35.276346 -52.195180
LeftForeArm 4.176909 -0.000000 29.622030
LeftHand -27.563341 -0.000000 12.300004
LeftHandThumb1 -26.253704 0.000000 33.147579
RightShoulder -5.955542 15.542787 -20.294697
RightArm 3.640246 -42.120787 89.296563
RightForeArm -18.762794 -0.000000 32.947244
RightHand -2.900226 -0.000000 3.445782
RightHandThumb1 -24.326973 -0.000000 -32.862282
LeftUpLeg -49.117097 8.968711 -3.291925
LeftLeg 15.478367 -0.000000 -0.000000
LeftFoot 4.094139 6.373835 -35.457019
LeftToeBase -4.695468 -0.000000 0.000000
RightUpLeg -20.658705 1.021758 17.990208
RightLeg 23.971806 -0.000000 -0.000000
RightFoot -21.721435 -10.431758 -6.282315
RightToeBase -2.733120 -0.000000 0.000000
791
root 21.273258 31.806612 -1.066051 128.271150 -79.439624 -108.353832
Spine 10.005521 13.069950 1.455225
Head -37.886548 36.745239 -7.830075
LeftShoulder -0.981603 17.159992 15.115565
LeftArm 49.135266 35.846677 -51.710975
LeftForeArm 4.271359 -0.000000 29.512452
LeftHand -27.582891 -0.000000 12.135083
LeftHandThumb1 -26.253704 0.000000 33.147579
RightShoulder -6.117868 15.412248 -20.296053
RightArm 3.216512 -42.320829 89.435204
RightForeArm -18.684439 -0.000000 32.784005
RightHand -2.795127 -0.000000 3.645455
RightHandThumb1 -24.326973 -0.000000 -32.862282
LeftUpLeg -49.066973 8.570165 -2.983613
LeftLeg 17.017950 -0.000000 -0.000000
LeftFoot 2.916398 6.474342 -34.758558
LeftToeBase -4.976612 -0.000000 0.000000
RightUpLeg -20.447627 0.663991 17.856335
RightLeg 23.843506 -0.000000 -0.000000
RightFoot -21.476363 -10.496847 -6.133998
RightToeBase -2.676515 -0.000000 0.000000
792
root 21.392183 31.845914 -1.028673 126.287891 -79.787015 -106.815484
Spine 9.990259 13.334650 1.617687
Head -38.177128 38.579433 -8.963108
LeftShoulder -1.218813 17.295741 14.921660
LeftArm 49.176842 36.221801 -51.404263
LeftForeArm 4.500599 0.000000 29.643854
LeftHand -27.616235 -0.000000 12.107055
LeftHandThumb1 -26.253704 0.000000 33.147579
RightShoulder -6.191065 15.244851 -20.288941
RightArm 2.873788 -42.539595 89.512982
RightForeArm -18.648819 0.000000 32.610679
RightHand -2.717916 -0.000000 3.790237
RightHandThumb1 -24.326973 -0.000000 -32.862282
LeftUpLeg -49.012115 8.180731 -2.760623
LeftLeg 18.522582 -0.000000 -0.000000
LeftFoot 1.727164 6.752737 -34.046603
LeftToeBase -5.148128 -0.000000 0.000000
RightUpLeg -20.268711 0.334689 17.664514
RightLeg 23.720988 -0.000000 -0.000000
RightFoot -21.231847 -10.647757 -6.040659
RightToeBase -2.558881 -0.000000 0.000000
793
root 21.496090 31.886748 -0.982602 124.812146 -80.139761 -105.799459
Spine 10.035334 13.764805 1.705579
Head -38.748271 40.137059 -10.205545
LeftShoulder -1.473193 17.460179 14.735333
LeftArm 49.185677 36.516863 -51.146942
LeftForeArm 4.664469 -0.000000 29.928322
LeftHand -27.586840 -0.000000 11.793653
LeftHandThumb1 -26.253704 0.000000 33.147579
RightShoulder -6.458818 15.060584 -20.240288
RightArm 2.586292 -42.995231 89.483446
RightForeArm -18.440367 -0.000000 32.530312
RightHand -2.753857 -0.000000 3.781389
RightHandThumb1 -24.326973 -0.000000 -32.862282
LeftUpLeg -48.873525 7.833257 -2.588022
LeftLeg 19.986534 -0.000000 -0.000000
LeftFoot 0.450816 7.053849 -33.382060
LeftToeBase -5.265074 -0.000000 0.000000
RightUpLeg -20.024362 -0.043818 17.396784
RightLeg 23.559198 -0.000000 -0.000000
RightFoot -21.009816 -10.664356 -6.003652
RightToeBase -2.441554 -0.000000 0.000000
794
root 21.605276 31.924437 -0.939561 122.739992 -80.520713 -104.245010
Spine 10.137004 14.095313 1.829247
Head -39.110816 41.665673 -11.309677
LeftShoulder -1.566433 17.455687 14.662341
LeftArm 48.808083 36.770638 -51.245280
LeftForeArm 4.737146 -0.000000 30.349574
LeftHand -27.636782 -0.000000 11.653815
LeftHandThumb1 -26.253704 0.000000 33.147579
RightShoulder -6.634121 14.836334 -20.222176
RightArm 2.463606 -43.360589 89.429470
RightForeArm -18.473324 -0.000000 32.291291
RightHand -2.667280 -0.000000 3.712894
RightHandThumb1 -24.326973 -0.000000 -32.862282
LeftUpLeg -48.647775 7.456516 -2.423305
LeftLeg 21.377305 -0.000000 -0.000000
LeftFoot -0.720139 7.288463 -32.918273
LeftToeBase -5.485846 -0.000000 0.000000
RightUpLeg -19.755424 -0.518106 17.147387
RightLeg 23.431669 -0.000000 -0.000000
RightFoot -20.818386 -10.680738 -5.968814
RightToeBase -2.347222 -0.000000 0.000000
795
root 21.710384 31.963291 -0.897795 120.483157 -80.875204 -102.451233
Spine 10.187829 14.428051 1.977993
Head -39.420639 42.989781 -12.381823
LeftShoulder -1.806845 17.618472 14.473361
LeftArm 48.615539 36.893016 -51.168643
LeftForeArm 5.045865 -0.000000 30.861663
LeftHand -27.207582 -0.000000 11.768994
LeftHandThumb1 -26.253704 0.000000 33.147579
RightShoulder -6.580481 14.756010 -20.253697
RightArm 1.878391 -43.227429 89.729133
RightForeArm -18.728184 -0.000000 32.192866
RightHand -2.600007 -0.000000 3.843262
RightHandThumb1 -24.326973 -0.000000 -32.862282
LeftUpLeg -48.449604 7.095271 -2.237554
LeftLeg 22.775899 -0.000000 -0.000000
LeftFoot -1.872019 7.478990 -32.381888
LeftToeBase -5.936317 -0.000000 0.000000
RightUpLeg -19.480198 -0.958756 16.915744
RightLeg 23.212733 -0.000000 -0.000000
RightFoot -20.604372 -10.736552 -5.914495
RightToeBase -2.255813 -0.000000 0.000000
796
root 21.813528 32.001931 -0.856259 117.941104 -81.225303 -100.359673
Spine 10.212592 14.775430 2.114280
Head -39.588209 44.171852 -13.275055
LeftShoulder -2.017740 17.849615 14.368015
LeftArm 48.487696 36.956857 -51.159035
LeftForeArm 5.109472 0.000000 31.399312
LeftHand -27.296628 -0.000000 11.674801
LeftHandThumb1 -26.253704 0.000000 33.147579
RightShoulder -6.793192 14.562244 -20.259621
RightArm 1.768967 -43.686957 89.699176
RightForeArm -18.608954 -0.000000 31.872744
RightHand -2.533611 -0.000000 3.785994
RightHandThumb1 -24.326973 -0.000000 -32.862282
LeftUpLeg -48.231736 6.822807 -2.140148
LeftLeg 24.133840 -0.000000 -0.000000
LeftFoot -2.989431 7.600388 -31.691569
LeftToeBase -5.571618 -0.000000 0.000000
RightUpLeg -19.211650 -1.471983 16.695635
RightLeg 22.986356 -0.000000 -0.000000
RightFoot -20.393411 -10.760149 -5.867940
RightToeBase -2.193007 -0.000000 0.000000
797
root 21.912106 32.042583 -0.811394 115.517964 -81.553214 -98.339111
Spine 10.190236 15.119551 2.240530
Head -39.724638 45.274772 -14.157016
LeftShoulder -2.282664 18.095960 14.164244
LeftArm 48.246178 36.967625 -51.124167
LeftForeArm 5.054101 0.000000 32.151370
LeftHand -27.438496 -0.000000 11.295035
LeftHandThumb1 -26.253704 0.000000 33.147579
RightShoulder -6.901449 14.393309 -20.239020
RightArm 1.522606 -43.955364 89.725746
RightForeArm -18.632568 -0.000000 31.701924
RightHand -2.487226 -0.000000 3.902910
RightHandThumb1 -24.326973 -0.000000 -32.862282
LeftUpLeg -48.000290 6.609106 -2.052628
LeftLeg 25.414938 -0.000000 -0.000000
LeftFoot -4.106154 7.666698 -31.208298
LeftToeBase -4.837204 -0.000000 0.000000
RightUpLeg -18.959425 -1.898271 16.437495
RightLeg 22.755867 -0.000000 -0.000000
RightFoot -20.217069 -10.707462 -5.753844
RightToeBase -1.952181 -0.000000 0.000000
